<svg width="80" height="80" viewBox="14 7 52 64" fill="none" xmlns="http://www.w3.org/2000/svg">
  <defs>
    <linearGradient id="shieldGradient" x1="16" y1="10" x2="62" y2="66" gradientUnits="userSpaceOnUse">
      <stop stop-color="#2F7D6B"/>
      <stop offset="1" stop-color="#5B8FCB"/>
    </linearGradient>
    <linearGradient id="carGradient" x1="23" y1="39" x2="53" y2="57" gradientUnits="userSpaceOnUse">
      <stop stop-color="white"/>
      <stop offset="1" stop-color="#E8F4FF"/>
    </linearGradient>
  </defs>

  <path
    d="M40 8L61 16.4V34.8C61 49.5 52.1 62.7 40 69.2C27.9 62.7 19 49.5 19 34.8V16.4L40 8Z"
    fill="url(#shieldGradient)"
  />
  <path
    d="M40 14.5L55.2 20.6V34C55.2 45.2 48.7 55.4 40 60.8C31.3 55.4 24.8 45.2 24.8 34V20.6L40 14.5Z"
    fill="white"
    fill-opacity="0.12"
  />

  <path
    d="M27.8 43.5L31.1 35.8C31.5 34.8 32.4 34.1 33.5 34.1H46.5C47.7 34.1 48.7 34.8 49.1 35.9L52.2 43.5C53.5 43.8 54.5 44.9 54.5 46.3V50.1C54.5 51.1 53.7 51.9 52.7 51.9H51.5C51.4 53.6 50 54.9 48.3 54.9C46.6 54.9 45.2 53.6 45.1 51.9H34.9C34.8 53.6 33.4 54.9 31.7 54.9C30 54.9 28.6 53.6 28.5 51.9H27.3C26.3 51.9 25.5 51.1 25.5 50.1V46.3C25.5 45 26.5 43.9 27.8 43.5Z"
    fill="url(#carGradient)"
  />
  <path
    d="M32.9 37C33.1 36.6 33.5 36.3 34 36.3H46C46.5 36.3 46.9 36.6 47.1 37L49.3 42.3H30.6L32.9 37Z"
    fill="#DFF2FF"
  />
  <circle cx="31.9" cy="51.6" r="1.9" fill="#2F7D6B"/>
  <circle cx="48.1" cy="51.6" r="1.9" fill="#2F7D6B"/>

  <path
    d="M28.8 29.8L35.4 26.2L40 29.4L46.3 22.8L51.2 24.2"
    stroke="#F2B36D"
    stroke-width="2.7"
    stroke-linecap="round"
    stroke-linejoin="round"
  />
  <path
    d="M48.6 22.7H52.3V26.4"
    stroke="#F2B36D"
    stroke-width="2.7"
    stroke-linecap="round"
    stroke-linejoin="round"
  />
</svg>
